<?xml version="1.0" encoding="utf-8"?>
<!-- Generator: Adobe Illustrator 21.0.0, SVG Export Plug-In . SVG Version: 6.00 Build 0)  -->
<svg version="1.1" id="Layer_1" xmlns="http://www.w3.org/2000/svg" xmlns:xlink="http://www.w3.org/1999/xlink" x="0px" y="0px"
	 viewBox="0 0 120.3 80.8" style="enable-background:new 0 0 120.3 80.8;" xml:space="preserve">
<style type="text/css">
	.st0{fill:#FFFFFF;}
</style>
<g>
	<g>
		<rect x="70.7" y="1.4" class="st0" width="1.3" height="1.3"/>
		<rect x="98.6" y="18.1" class="st0" width="1.3" height="1.3"/>
		<path class="st0" d="M115,16.7c0.3-0.2,0.6-0.4,0.8-0.7c0.2-0.3,0.3-0.7,0.4-1.1s0.1-0.9,0.1-1.4V4.1H115v9.4c0,0.4,0,0.7-0.1,1
			c0,0.3-0.1,0.5-0.2,0.6c-0.1,0.2-0.2,0.3-0.4,0.4c-0.2,0.1-0.4,0.1-0.6,0.1c-0.1,0-0.2,0-0.3,0c-0.1,0-0.2,0-0.4-0.1l-0.4,1.3
			c0.4,0.1,0.7,0.2,1.1,0.2C114.2,16.9,114.6,16.9,115,16.7z"/>
		<path class="st0" d="M110.3,1.8h-1.8V1.4c0-0.2,0-0.3,0.1-0.4s0.2-0.1,0.4-0.1h0.9V0H109c-0.5,0-0.9,0.1-1.2,0.4
			c-0.3,0.3-0.4,0.7-0.4,1.3v1.1h2.9V1.8z"/>
		<rect x="95.9" y="18.1" class="st0" width="1.3" height="1.3"/>
		<rect x="73.3" y="1.4" class="st0" width="1.3" height="1.3"/>
		<path class="st0" d="M104.3,12.2c0.5,0.4,1.1,0.6,1.8,0.8c0.7,0.2,1.4,0.3,2.1,0.3h0.4l0.5-0.9v1.3c0,0.7-0.2,1.2-0.6,1.5
			s-1,0.5-1.7,0.5c-0.4,0-0.8,0-1.1-0.1c-0.3-0.1-0.7-0.2-1.1-0.4l-0.4,1.3c0.5,0.2,1,0.3,1.4,0.4s0.8,0.1,1.2,0.1
			c1.3,0,2.3-0.3,2.9-0.9s0.9-1.5,0.9-2.5V4.2h-2.2c-0.8,0-1.6,0.1-2.3,0.4c-0.7,0.2-1.3,0.6-1.8,1s-0.9,0.9-1.1,1.5
			c-0.3,0.6-0.4,1.2-0.4,1.8c0,0.8,0.1,1.5,0.4,2C103.4,11.3,103.8,11.8,104.3,12.2z M104.3,7.4c0.2-0.4,0.5-0.7,0.8-1
			s0.7-0.5,1.2-0.7c0.4-0.2,0.9-0.2,1.3-0.2l0,0h2.2L109,5.9v6h-1.4c-0.5,0-1-0.1-1.4-0.2s-0.8-0.3-1.2-0.6c-0.3-0.3-0.6-0.6-0.8-1
			c-0.2-0.4-0.3-0.8-0.3-1.3C104,8.3,104.1,7.8,104.3,7.4z"/>
		<path class="st0" d="M71,16.7h2.8v-1l0.1,0.1c0.2,0.3,0.5,0.5,0.8,0.7s0.7,0.2,1.2,0.2h24.5V4.1h-1.3v11.3h-1.4H76
			c-0.3,0-0.5,0-0.6-0.1c-0.2-0.1-0.3-0.2-0.4-0.4c-0.1-0.2-0.2-0.4-0.2-0.6c0-0.3-0.1-0.6-0.1-1V4h-3.6c-3.7,0-6.2,2.9-6.2,6.3l0,0
			C64.8,13.8,67.3,16.7,71,16.7z M66.2,10.4c0-2.8,2-5,4.8-5h3.1l-0.8,0.4v7.6c0,0.5,0,1,0.1,1.4c0,0.2,0.1,0.5,0.2,0.7H71
			C68.3,15.5,66.2,13.2,66.2,10.4L66.2,10.4z"/>
		<polygon class="st0" points="58.1,13.4 58.7,15 50.1,4.1 48.8,4.1 48.8,16.7 50.2,16.7 50.2,7.2 49.4,5.4 58.3,16.7 59.5,16.7 
			59.5,4.1 58.1,4.1 		"/>
		<path class="st0" d="M77.2,36.9l7.8-7.4v-5.1H64.3v5.8h10.6l3.9-2.5L69,37.5l1.1,4.3h2.8c3.8,0,6,1.4,6,3.9v0.1
			c0,2.3-1.8,3.7-4.3,3.7c-3.1,0-5.3-1.3-7.4-3.7l-4.6,4.4c2.6,3.1,6.4,5.3,12,5.3c6.8,0,11-4.2,11-10v-0.1
			C85.5,39.7,81.4,37.6,77.2,36.9z"/>
		<path class="st0" d="M40,3.9c-3.8,0-6.5,3-6.5,6.5l0,0c0,3.5,2.6,6.5,6.4,6.5s6.5-3,6.5-6.5l0,0C46.5,6.9,43.9,3.9,40,3.9z
			 M45,10.5c0,2.9-2.1,5.2-4.9,5.2s-5-2.3-5-5.2l0,0c0-2.9,2.1-5.2,4.9-5.2C42.9,5.2,45,7.6,45,10.5L45,10.5z"/>
		<path class="st0" d="M103.5,23.9c-9.5,0-16.3,7.1-16.3,15.8v0.1c0,8.7,6.8,15.7,16.2,15.7c9.5,0,16.3-7.1,16.3-15.8v-0.1
			C119.8,30.9,113,23.9,103.5,23.9z M112.7,39.8c0,5.2-3.8,9.5-9.2,9.5c-5.4,0-9.3-4.4-9.3-9.6v-0.1c0-5.2,3.8-9.5,9.2-9.5
			S112.7,34.5,112.7,39.8L112.7,39.8z"/>
		<rect x="29.7" y="4.1" class="st0" width="1.4" height="12.6"/>
		<path class="st0" d="M6.8,51.5l1.3-1l6.7-5.2c5.4-4.2,8.1-6.7,8.1-11.8v-0.1c0-5.7-4.2-9.4-10.6-9.4c-5.5,0-8.4,2.2-11.4,6.3
			l4.7,3.8c2.3-2.8,3.9-4.1,6.3-4.1s4.1,1.4,4.1,4c0,2.5-1.5,4.2-5.3,7.3L0.5,49.7V55h22.7v-5.8H11.5L6.8,51.5z"/>
		<polygon class="st0" points="6.9,16.8 12.3,4.1 10.8,4.1 6.5,14.4 6.6,15.8 6.3,15 2.6,6 1.8,4.1 0.2,4.1 5.6,16.8 		"/>
		<rect x="14.3" y="4.1" class="st0" width="1.4" height="12.6"/>
		<path class="st0" d="M23.2,9.7c-2.8-0.6-3.4-1.3-3.4-2.4l0,0c0-1.1,1-2,2.7-2c1.3,0,2.5,0.4,3.6,1.4l0.8-1.1
			c-1.3-1-2.6-1.5-4.4-1.5c-2.4,0-4.1,1.5-4.1,3.4l0,0c0,2.1,1.3,3,4.2,3.6c2.7,0.6,3.3,1.2,3.3,2.4l0,0c0,1.2-1.1,2.1-2.8,2.1
			c-1.8,0-3-0.6-4.3-1.8l-0.9,1c1.5,1.4,3.2,2,5.2,2c2.5,0,4.3-1.4,4.3-3.6l0,0C27.3,11.4,26,10.3,23.2,9.7z"/>
	</g>
	<polygon class="st0" points="41.5,21.9 43.1,23.3 41.6,24.9 40,23.4 	"/>
	<polygon class="st0" points="45.1,23.4 46.6,24.9 48.1,23.3 46.5,21.9 	"/>
	<polygon class="st0" points="42.9,25.4 44.1,26.5 45.2,25.3 44,24.2 	"/>
	<polygon class="st0" points="47.3,26 48.5,27.2 49.7,26 48.5,24.8 	"/>
	<polygon class="st0" points="40.9,27.2 42.1,28.4 43.3,27.2 42.1,26 	"/>
	<polygon class="st0" points="44.9,27.3 46.2,28.5 47.3,27.3 46.1,26.1 	"/>
	<polygon class="st0" points="43.4,28.7 44.2,29.6 45,28.7 44.2,27.9 	"/>
	<polygon class="st0" points="46.6,29.4 47.4,30.2 48.2,29.3 47.4,28.5 	"/>
	<rect x="53.8" y="22.7" transform="matrix(0.9836 -0.1803 0.1803 0.9836 -3.4315 10.3394)" class="st0" width="2.7" height="2.7"/>
	<rect x="50.3" y="23.8" transform="matrix(0.9836 -0.1801 0.1801 0.9836 -3.6349 9.6622)" class="st0" width="2.2" height="2.1"/>
	<rect x="54.4" y="26.8" transform="matrix(0.9836 -0.1804 0.1804 0.9836 -4.1125 10.4697)" class="st0" width="2.2" height="2.1"/>
	<rect x="51.4" y="27.1" transform="matrix(0.9836 -0.1802 0.1802 0.9836 -4.1824 9.8732)" class="st0" width="1.7" height="1.7"/>
	<rect x="54.6" y="30.2" transform="matrix(0.9836 -0.1802 0.1802 0.9836 -4.689 10.4998)" class="st0" width="1.7" height="1.7"/>
	<rect x="49" y="27.8" transform="matrix(0.9836 -0.1802 0.1802 0.9836 -4.3454 9.4528)" class="st0" width="1.7" height="1.7"/>
	<rect x="52" y="29.9" transform="matrix(0.9836 -0.1802 0.1802 0.9836 -4.6747 10.026)" class="st0" width="1.7" height="1.7"/>
	<rect x="49.8" y="30.2" transform="matrix(0.9836 -0.1803 0.1803 0.9836 -4.7278 9.5929)" class="st0" width="1.2" height="1.2"/>
	<rect x="52.1" y="32.6" transform="matrix(0.9837 -0.1798 0.1798 0.9837 -5.1086 10.0173)" class="st0" width="1.2" height="1.2"/>
	<polygon class="st0" points="61.4,31.5 60.3,34 62.7,35.1 63.8,32.7 	"/>
	<polygon class="st0" points="58,30.4 57.1,32.4 59,33.3 59.9,31.4 	"/>
	<polygon class="st0" points="59.6,35.2 58.6,37.1 60.6,38.1 61.5,36.1 	"/>
	<polygon class="st0" points="57,33.8 56.3,35.3 57.8,36 58.5,34.5 	"/>
	<polygon class="st0" points="57.8,38.2 57.1,39.7 58.6,40.4 59.3,38.9 	"/>
	<polygon class="st0" points="54.6,32.9 53.9,34.4 55.4,35.1 56.1,33.6 	"/>
	<polygon class="st0" points="55.8,36.3 55.1,37.9 56.6,38.6 57.3,37.1 	"/>
	<polygon class="st0" points="54,35.3 53.5,36.3 54.5,36.8 55,35.8 	"/>
	<rect x="54.1" y="38.7" transform="matrix(0.4297 -0.903 0.903 0.4297 -4.2721 71.7588)" class="st0" width="1.2" height="1.2"/>
	<polygon class="st0" points="62.7,43.1 60.4,44.4 61.7,46.8 64,45.5 	"/>
	<polygon class="st0" points="60.6,40.2 58.7,41.2 59.7,43.1 61.6,42.1 	"/>
	<polygon class="st0" points="59.1,45 57.2,46 58.2,47.9 60.1,46.9 	"/>
	<polygon class="st0" points="57.9,42.3 56.4,43.1 57.2,44.6 58.7,43.8 	"/>
	<polygon class="st0" points="55.9,46.4 54.4,47.2 55.2,48.6 56.7,47.8 	"/>
	<polygon class="st0" points="56.5,40.2 55,41 55.8,42.5 57.3,41.7 	"/>
	<polygon class="st0" points="55.4,43.7 53.9,44.5 54.7,46 56.2,45.2 	"/>
	<polygon class="st0" points="54.5,41.8 53.5,42.4 54,43.4 55.1,42.8 	"/>
	<polygon class="st0" points="52.9,44.7 51.9,45.2 52.5,46.3 53.5,45.7 	"/>
	<rect x="54.2" y="53" transform="matrix(0.1226 -0.9925 0.9925 0.1226 -5.2582 102.8217)" class="st0" width="2.7" height="2.7"/>
	<rect x="54.7" y="49.5" transform="matrix(0.123 -0.9924 0.9924 0.123 -1.324 99.7547)" class="st0" width="2.1" height="2.2"/>
	<rect x="50.7" y="52.5" transform="matrix(0.123 -0.9924 0.9924 0.123 -7.823 98.3418)" class="st0" width="2.1" height="2.2"/>
	<rect x="51.7" y="49.7" transform="matrix(0.1227 -0.9924 0.9924 0.1227 -4.0478 96.564)" class="st0" width="1.7" height="1.7"/>
	<rect x="47.8" y="51.8" transform="matrix(0.1227 -0.9924 0.9924 0.1227 -9.5725 94.4484)" class="st0" width="1.7" height="1.7"/>
	<rect x="51.8" y="47.2" transform="matrix(0.123 -0.9924 0.9924 0.123 -1.4726 94.3539)" class="st0" width="1.7" height="1.7"/>
	<rect x="48.8" y="49.3" transform="matrix(0.123 -0.9924 0.9924 0.123 -6.1931 93.3082)" class="st0" width="1.7" height="1.7"/>
	<rect x="49.8" y="47.3" transform="matrix(0.1228 -0.9924 0.9924 0.1228 -3.2455 92.0348)" class="st0" width="1.2" height="1.2"/>
	<rect x="46.9" y="48.7" transform="matrix(0.1227 -0.9924 0.9924 0.1227 -7.2789 90.367)" class="st0" width="1.2" height="1.2"/>
	<polygon class="st0" points="46.4,58.2 44.4,56.3 42.6,58.3 44.6,60.1 	"/>
	<polygon class="st0" points="46,20.7 44.1,18.8 42.3,20.8 44.2,22.6 	"/>
	<polygon class="st0" points="48.5,55.2 46.9,53.8 45.5,55.3 47,56.8 	"/>
	<polygon class="st0" points="43.5,55.3 41.9,53.8 40.4,55.4 42,56.9 	"/>
	<polygon class="st0" points="45.6,53.3 44.4,52.2 43.2,53.4 44.5,54.5 	"/>
	<polygon class="st0" points="41.2,52.7 39.9,51.6 38.8,52.8 40,54 	"/>
	<polygon class="st0" points="47.2,51.3 46,50.2 44.8,51.4 46,52.5 	"/>
	<polygon class="st0" points="43.5,51.4 42.3,50.2 41.1,51.5 42.4,52.6 	"/>
	<polygon class="st0" points="45.1,49.9 44.2,49.1 43.4,50 44.3,50.8 	"/>
	<polygon class="st0" points="41.8,49.4 41,48.6 40.2,49.4 41,50.2 	"/>
	<rect x="32" y="53.5" transform="matrix(0.9805 -0.1965 0.1965 0.9805 -10.1288 7.6214)" class="st0" width="2.7" height="2.7"/>
	<rect x="36" y="52.9" transform="matrix(0.9805 -0.1964 0.1964 0.9805 -9.8731 8.338)" class="st0" width="2.2" height="2.1"/>
	<rect x="31.9" y="50" transform="matrix(0.9805 -0.1967 0.1967 0.9805 -9.3952 7.4884)" class="st0" width="2.2" height="2.1"/>
	<rect x="35.3" y="50" transform="matrix(0.9805 -0.1964 0.1964 0.9805 -9.2834 8.0889)" class="st0" width="1.7" height="1.7"/>
	<rect x="37.8" y="49.3" transform="matrix(0.9805 -0.1964 0.1964 0.9805 -9.0955 8.5663)" class="st0" width="1.7" height="1.7"/>
	<rect x="34.8" y="47.2" transform="matrix(0.9805 -0.1964 0.1964 0.9805 -8.7405 7.9362)" class="st0" width="1.7" height="1.7"/>
	<rect x="37.4" y="47.4" transform="matrix(0.9806 -0.1962 0.1962 0.9806 -8.6788 8.3869)" class="st0" width="1.2" height="1.2"/>
	<rect x="35.1" y="45.1" transform="matrix(0.9805 -0.1967 0.1967 0.9805 -8.2922 7.9159)" class="st0" width="1.2" height="1.2"/>
	<polygon class="st0" points="27,47.4 28.1,45 25.6,43.9 24.5,46.3 	"/>
	<polygon class="st0" points="30.4,48.5 31.3,46.5 29.3,45.7 28.5,47.6 	"/>
	<polygon class="st0" points="28.7,43.7 29.6,41.8 27.7,40.9 26.8,42.9 	"/>
	
		<rect x="30.1" y="43.2" transform="matrix(0.4149 -0.9099 0.9099 0.4149 -21.9521 53.8747)" class="st0" width="1.7" height="1.7"/>
	<polygon class="st0" points="33.4,49 34.1,47.4 32.5,46.8 31.8,48.3 	"/>
	<rect x="29.2" y="38.8" transform="matrix(0.4151 -0.9098 0.9098 0.4151 -18.5108 50.538)" class="st0" width="1.7" height="1.7"/>
	<rect x="32.5" y="44" transform="matrix(0.4151 -0.9098 0.9098 0.4151 -21.3284 56.6105)" class="st0" width="1.7" height="1.7"/>
	
		<rect x="31.3" y="40.5" transform="matrix(0.4154 -0.9096 0.9096 0.4154 -18.8709 53.4171)" class="st0" width="1.7" height="1.7"/>
	<polygon class="st0" points="34.3,43.6 34.8,42.5 33.8,42 33.3,43.1 	"/>
	<polygon class="st0" points="33.9,40.3 34.4,39.3 33.3,38.8 32.8,39.9 	"/>
	<polygon class="st0" points="25.5,35.9 27.8,34.6 26.5,32.2 24.1,33.6 	"/>
	<polygon class="st0" points="27.6,38.8 29.5,37.7 28.4,35.8 26.6,36.9 	"/>
	<polygon class="st0" points="29.1,33.9 30.9,32.9 29.9,31 28,32.1 	"/>
	<polygon class="st0" points="30.3,36.6 31.8,35.8 31,34.3 29.5,35.1 	"/>
	<polygon class="st0" points="32.2,32.5 33.7,31.7 32.8,30.2 31.4,31.1 	"/>
	<polygon class="st0" points="31.8,38.7 33.2,37.9 32.4,36.4 31,37.2 	"/>
	<polygon class="st0" points="32.8,35.2 34.3,34.3 33.5,32.9 32,33.7 	"/>
	<polygon class="st0" points="33.7,37.1 34.7,36.5 34.2,35.5 33.1,36 	"/>
	<polygon class="st0" points="35.2,34.2 36.3,33.6 35.7,32.6 34.7,33.2 	"/>
	<rect x="31.1" y="23.1" transform="matrix(0.1063 -0.9943 0.9943 0.1063 4.7804 54.1211)" class="st0" width="2.7" height="2.7"/>
	<rect x="31.2" y="27.2" transform="matrix(0.1064 -0.9943 0.9943 0.1064 0.6779 57.42)" class="st0" width="2.1" height="2.2"/>
	<rect x="35.2" y="24.1" transform="matrix(0.1064 -0.9943 0.9943 0.1064 7.2993 58.6065)" class="st0" width="2.1" height="2.2"/>
	<rect x="34.7" y="27.5" transform="matrix(0.1065 -0.9943 0.9943 0.1065 3.5537 60.6477)" class="st0" width="1.7" height="1.7"/>
	<rect x="38.6" y="25.2" transform="matrix(0.1061 -0.9944 0.9944 0.1061 9.3189 62.5059)" class="st0" width="1.7" height="1.7"/>
	<rect x="34.6" y="30" transform="matrix(0.1065 -0.9943 0.9943 0.1065 0.9842 62.7658)" class="st0" width="1.7" height="1.7"/>
	<rect x="37.5" y="27.8" transform="matrix(0.1065 -0.9943 0.9943 0.1065 5.8521 63.7269)" class="st0" width="1.7" height="1.7"/>
	<rect x="37.1" y="30.3" transform="matrix(0.1064 -0.9943 0.9943 0.1064 2.9771 65.0378)" class="st0" width="1.2" height="1.2"/>
	<rect x="40.1" y="28.8" transform="matrix(0.1058 -0.9944 0.9944 0.1058 7.073 66.7556)" class="st0" width="1.2" height="1.2"/>
	<path class="st0" d="M52.6,41.1c-0.2-0.1-0.6-0.3-1.1-0.5c-0.7-0.2-1.7-0.4-2.9-0.2c-0.4,0.1-0.8,0.2-1.3,0.3h-0.1
		c-0.2,0.1-0.4,0.2-0.7,0.3c-0.2,0.1-0.4,0.2-0.6,0.3c-0.4,0.3-0.9,0.6-1.3,0.9c-0.5-2.9-0.2-5.5-0.1-6.8l0,0c1,0.6,0.7,2.4,0.5,2.9
		l0,0c1.3-1.5,0.6-3.1,0.4-3.5l0,0c0.2,0.1,0.3,0.3,0.5,0.5c0.4,0.5,0.5,1,0.6,1.5c0,0.3,0,0.5,0,0.7c0,0.1,0,0.1,0,0.2l0,0l0,0
		c0.3-0.7,0.5-1.7,0-2.7c-0.1-0.3-0.3-0.5-0.6-0.8c-0.1-0.1-0.1-0.1-0.2-0.2l0,0c0.1,0,0.1,0,0.2,0.1c0.2,0.1,0.4,0.2,0.6,0.3
		c0.4,0.3,0.6,0.7,0.8,1.1c0.1,0.3,0.2,0.7,0.2,1l0,0c0.2-0.9,0.1-1.5-0.2-2c-0.2-0.3-0.5-0.6-0.8-0.8c-0.2-0.1-0.4-0.2-0.6-0.3
		c-0.1,0-0.2-0.1-0.3-0.1l0,0c0.1,0,0.2,0,0.3,0c0.2,0,0.4,0,0.6,0c0.3,0.1,0.6,0.2,0.8,0.3c0.3,0.2,0.5,0.5,0.5,0.6l0,0
		c0-0.5-0.3-0.8-0.6-1.1c-0.2-0.2-0.5-0.3-0.8-0.4c-0.2-0.1-0.4-0.1-0.6-0.1c-0.3,0-0.5,0-0.7,0.1l0,0c0.2-0.3,0.4-0.4,0.7-0.5
		c0.2-0.1,0.4-0.1,0.6-0.1c0.2,0,0.3,0,0.5,0.1l0,0c-0.1-0.2-0.3-0.3-0.5-0.4c-0.2-0.1-0.4-0.2-0.6-0.2c-0.5-0.1-1,0.2-1.4,0.7l0,0
		c-0.1-0.1-0.1-0.3-0.2-0.4c-0.1-0.3-0.3-0.7-0.3-1l0,0c-0.1,0.4-0.2,0.7-0.3,1c-0.1,0.1-0.1,0.3-0.2,0.4l0,0
		c-0.6-0.9-1.7-0.9-2.4-0.1l0,0c0.5-0.2,1.3-0.2,1.8,0.5l0,0c-0.7-0.3-1.7-0.1-2.3,0.6c-0.2,0.2-0.3,0.5-0.4,0.9l0,0
		c0-0.1,0.2-0.3,0.4-0.4c0.3-0.3,0.9-0.6,1.8-0.5l0,0c-0.5,0.1-1.5,0.5-1.8,1.5c-0.2,0.4-0.2,1,0,1.6l0,0l0,0c0-0.9,0.5-2.1,1.8-2.4
		l0,0c-1.4,1.2-1.3,2.8-0.8,3.7l0,0c-0.1-0.7-0.1-1.9,1-2.8l0,0c-0.3,0.4-0.9,2.1,0.4,3.5l0,0c-0.2-0.5-0.5-2.3,0.5-2.9l0,0
		c0.1,1.3,0.3,3.9-0.1,6.8c-0.8-0.6-1.7-1.2-2.5-1.5c-0.1,0-0.2-0.1-0.3-0.1c-0.9-0.3-1.7-0.4-2.4-0.3c-1.1,0-2,0.4-2.5,0.6
		c-0.1,0-0.2,0.1-0.2,0.1s0,0.1,0,0c0.1,0,0.1,0,0.2-0.1c0.9-0.2,1.7-0.3,2.5-0.2s1.6,0.3,2.4,0.6c1,0.5,2,1.1,2.8,1.8
		c-1.2,1-2.2,2.1-2.8,2.4c0,0-0.1,0-0.1,0.1c-0.1-0.2-0.4-0.3-0.7-0.3c-0.2,0.1-0.4,0.2-0.5,0.5c0,0.2,0,0.4,0.1,0.6
		c0.3,0.3,0.7,0.3,1.1,0.2c0.8-0.3,1.9-1.4,3.1-2.6c0.1-0.1,0.2-0.2,0.3-0.3c0.1,0.1,0.2,0.2,0.3,0.3c0.6,0.5,1.1,1,1.6,1.5
		c0.2,0.2,0.4,0.3,0.6,0.5c0.3,0.2,0.5,0.4,0.8,0.6c0.5,0.3,0.9,0.3,1.3,0c0,0,0,0,0.1-0.1s0.2-0.4,0.1-0.6c0-0.1-0.1-0.2-0.2-0.3
		c-0.1-0.1-0.2-0.1-0.3-0.2c-0.3-0.1-0.5,0.1-0.7,0.3c-0.1,0-0.2-0.1-0.3-0.2c-0.2-0.2-0.5-0.4-0.8-0.6c-0.2-0.2-0.4-0.3-0.6-0.5
		c-0.4-0.4-0.8-0.7-1.3-1.1c0.4-0.3,0.8-0.7,1.3-1c0.2-0.1,0.4-0.2,0.6-0.4c0.3-0.2,0.5-0.3,0.8-0.4c0.4-0.2,0.8-0.4,1.3-0.5
		c0.9-0.3,1.9-0.3,2.9-0.2C51.9,41,52.2,41.1,52.6,41.1C52.6,41.2,52.6,41.1,52.6,41.1"/>
	<g>
		<rect x="6.4" y="70.3" class="st0" width="0.8" height="0.8"/>
		<path class="st0" d="M59.6,69.4v-5.2h-0.8v4.4h-2.9v-4.4h-0.8v4.4H52v-4.4h-1.2c-0.5,0-0.9,0.1-1.3,0.2c-0.4,0.1-0.7,0.3-1,0.5
			s-0.5,0.5-0.6,0.8c-0.2,0.3-0.2,0.7-0.2,1c0,0.5,0.1,0.8,0.3,1.2c0.2,0.3,0.4,0.6,0.7,0.8c0.3,0.2,0.6,0.4,1,0.5s0.8,0.2,1.2,0.2
			H59.6z M49.8,68.5c-0.3-0.1-0.5-0.2-0.7-0.4c-0.2-0.2-0.3-0.3-0.4-0.6c-0.1-0.2-0.2-0.5-0.2-0.8s0.1-0.5,0.2-0.8
			c0.1-0.2,0.3-0.4,0.5-0.6s0.4-0.3,0.7-0.4s0.5-0.1,0.8-0.1h0.8v3.7h-0.8C50.3,68.6,50,68.6,49.8,68.5z"/>
		<rect x="43.2" y="62.5" class="st0" width="0.8" height="6.9"/>
		<rect x="51.3" y="62.5" class="st0" width="0.8" height="0.8"/>
		<rect x="58.8" y="70.3" class="st0" width="0.8" height="0.8"/>
		<rect x="7.8" y="70.3" class="st0" width="0.8" height="0.8"/>
		<path class="st0" d="M40.1,68.6h-1.3c-0.4,0-0.8-0.1-1.1-0.2s-0.5-0.3-0.6-0.6c0-0.2,0.1-0.4,0.1-0.7v-2.5h-0.8v2.6
			c0,0.4-0.1,0.8-0.4,1.1c-0.2,0.3-0.6,0.4-1.1,0.4c-0.2,0-0.4,0-0.6-0.1c-0.2-0.1-0.3-0.2-0.5-0.3c-0.1-0.1-0.2-0.3-0.3-0.4
			c-0.1-0.2-0.1-0.3-0.1-0.5v-2.7h-0.8v2.7c0,0.2,0,0.4-0.1,0.6s-0.2,0.3-0.3,0.4s-0.3,0.2-0.4,0.2c-0.2,0-0.3,0.1-0.5,0.1H30v-4
			h-0.8v4h-4l1.3-3.2c-0.2-0.2-0.4-0.3-0.7-0.5c-0.2-0.2-0.5-0.3-0.7-0.4s-0.5-0.2-0.7-0.3c-0.3-0.1-0.5-0.1-0.7-0.1
			c-0.3,0-0.5,0-0.8,0.1s-0.5,0.2-0.7,0.3c-0.2,0.1-0.5,0.3-0.7,0.4c-0.2,0.2-0.4,0.3-0.6,0.5l1.4,3.2h-2.7v-4.4h-1.2
			c-0.5,0-0.9,0.1-1.3,0.2s-0.7,0.3-1,0.6c-0.3,0.2-0.5,0.5-0.6,0.8c-0.2,0.3-0.2,0.7-0.2,1.1c0,0.5,0.1,0.8,0.3,1.2
			c0.2,0.3,0.4,0.6,0.7,0.8c0.3,0.2,0.6,0.4,1,0.5s0.8,0.1,1.2,0.1H19v0.2c0,0.4-0.1,0.7-0.3,0.9c-0.2,0.2-0.6,0.3-1,0.3
			c-0.2,0-0.5,0-0.6-0.1c-0.2,0-0.4-0.1-0.6-0.2l-0.2,0.7c0.3,0.1,0.6,0.2,0.8,0.2c0.2,0.1,0.5,0.1,0.7,0.1c0.8,0,1.3-0.2,1.6-0.5
			c0.3-0.4,0.5-0.8,0.5-1.4v-0.1h12c0.4,0,0.7-0.1,1-0.2c0.3-0.2,0.5-0.4,0.7-0.6c0.2,0.3,0.4,0.5,0.8,0.7c0.3,0.2,0.7,0.3,1.1,0.3
			c0.5,0,0.9-0.1,1.2-0.2c0.3-0.2,0.6-0.4,0.7-0.7c0.1,0.1,0.1,0.2,0.2,0.3c0.1,0.1,0.2,0.2,0.4,0.3c0.1,0.1,0.3,0.2,0.5,0.2
			s0.3,0.1,0.6,0.1l0,0h2.2V63h-0.8v5.6H40.1z M18.7,68.6H18c-0.3,0-0.6,0-0.8-0.1c-0.3-0.1-0.5-0.2-0.7-0.4
			c-0.2-0.2-0.3-0.3-0.5-0.6c-0.1-0.2-0.2-0.5-0.2-0.8s0.1-0.5,0.2-0.8c0.1-0.2,0.3-0.4,0.5-0.6s0.4-0.3,0.7-0.4
			c0.3-0.1,0.5-0.1,0.8-0.1h0.8L18.7,68.6L18.7,68.6z M23,68.6l-1.2-2.9c0.3-0.2,0.6-0.4,0.9-0.5s0.6-0.2,1-0.2c0.3,0,0.7,0.1,1,0.2
			s0.6,0.3,0.9,0.5l-1.2,2.9H23z"/>
		<rect x="3.8" y="62.5" class="st0" width="0.8" height="0.8"/>
		<rect x="81.6" y="62.5" class="st0" width="0.8" height="0.8"/>
		<rect x="74.8" y="62.5" class="st0" width="0.8" height="6.9"/>
		<rect x="50" y="62.5" class="st0" width="0.8" height="0.8"/>
		<path class="st0" d="M13.9,66.3c0-0.3,0-0.6-0.1-0.8c-0.1-0.3-0.2-0.5-0.4-0.7c-0.2-0.2-0.4-0.4-0.7-0.5c-0.3-0.1-0.6-0.2-0.9-0.2
			h-0.6v0.8h0.7c0.2,0,0.4,0,0.5,0.1c0.2,0.1,0.3,0.2,0.4,0.3c0.1,0.1,0.2,0.3,0.2,0.4c0,0.2,0.1,0.4,0.1,0.6v2.2H9.5v0.8h4.4V66.3z
			"/>
		<rect x="115.5" y="62.5" class="st0" width="0.8" height="6.9"/>
		<rect x="83" y="62.5" class="st0" width="0.8" height="0.8"/>
		<path class="st0" d="M113.3,62.5h-0.8v6.1h-2.6c0.2-0.4,0.2-0.7,0.2-1.1s-0.1-0.8-0.2-1.1c-0.1-0.3-0.3-0.6-0.6-0.9
			c-0.3-0.3-0.5-0.4-0.9-0.6c-0.3-0.1-0.7-0.2-1.1-0.2s-0.7,0.1-1.1,0.2c-0.3,0.1-0.6,0.3-0.9,0.6c-0.2,0.3-0.4,0.5-0.6,0.9
			c-0.1,0.3-0.2,0.7-0.2,1.1c0,0.2,0,0.4,0.1,0.6c0,0.2,0.1,0.4,0.2,0.5h-2.4c0.2-0.4,0.2-0.7,0.2-1.1s-0.1-0.8-0.2-1.1
			c-0.1-0.3-0.3-0.6-0.6-0.9c-0.3-0.3-0.5-0.4-0.9-0.6c-0.3-0.1-0.7-0.2-1.1-0.2s-0.7,0.1-1.1,0.2c-0.3,0.1-0.6,0.3-0.9,0.6
			c-0.2,0.3-0.4,0.5-0.6,0.9c-0.1,0.3-0.2,0.7-0.2,1.1c0,0.2,0,0.4,0.1,0.6c0,0.2,0.1,0.4,0.2,0.5h-2.4v-6.1h-0.8v6.1h-2.5v-1.2
			c0-0.3,0-0.6-0.1-0.8c-0.1-0.3-0.2-0.5-0.4-0.7c-0.2-0.2-0.4-0.4-0.7-0.5c-0.3-0.1-0.6-0.2-1-0.2H86l1.4-2.8h-0.8l-1.5,2.8
			c0,0.2,0.1,0.3,0.1,0.4c0.1,0.1,0.1,0.2,0.2,0.3h3.9c0.2,0,0.5,0,0.6,0.1c0.2,0.1,0.3,0.2,0.4,0.3c0.1,0.1,0.2,0.3,0.2,0.4
			c0,0.2,0.1,0.4,0.1,0.6v1.2h-7.1v-4.4h-1.2c-0.5,0-0.9,0.1-1.3,0.2s-0.7,0.3-1,0.5s-0.5,0.5-0.6,0.8c-0.2,0.3-0.2,0.7-0.2,1
			c0,0.5,0.1,0.8,0.3,1.2c0.2,0.3,0.4,0.6,0.7,0.8c0.3,0.2,0.6,0.4,1,0.5s0.8,0.2,1.2,0.2h15.3c0.3,0.3,0.5,0.5,0.9,0.6
			c0.3,0.2,0.7,0.2,1.1,0.2s0.8-0.1,1.2-0.2c0.4-0.2,0.7-0.4,0.9-0.6h3.4c0.3,0.3,0.5,0.5,0.9,0.6c0.3,0.2,0.7,0.2,1.1,0.2
			s0.8-0.1,1.1-0.2c0.4-0.2,0.7-0.4,0.9-0.6h3.9v-6.8H113.3z M83,68.6h-0.8c-0.3,0-0.6,0-0.8-0.1c-0.3-0.1-0.5-0.2-0.7-0.4
			c-0.2-0.2-0.3-0.3-0.4-0.6c-0.1-0.2-0.2-0.5-0.2-0.8s0.1-0.5,0.2-0.8c0.1-0.2,0.3-0.4,0.5-0.6s0.4-0.3,0.7-0.4
			c0.3-0.1,0.5-0.1,0.8-0.1H83V68.6z M101.7,68.3c-0.1,0.2-0.3,0.5-0.4,0.6c-0.2,0.2-0.4,0.3-0.6,0.4s-0.5,0.1-0.8,0.1
			s-0.5-0.1-0.8-0.2c-0.2-0.1-0.4-0.3-0.6-0.4c-0.2-0.2-0.3-0.4-0.4-0.6S98,67.7,98,67.4s0.1-0.5,0.1-0.8c0.1-0.2,0.2-0.5,0.4-0.6
			c0.2-0.2,0.4-0.3,0.6-0.4s0.5-0.2,0.8-0.2s0.6,0.1,0.8,0.2c0.2,0.1,0.5,0.2,0.6,0.4c0.2,0.2,0.3,0.4,0.4,0.6s0.2,0.5,0.2,0.8
			C101.9,67.7,101.8,68,101.7,68.3z M109.2,68.3c-0.1,0.2-0.3,0.5-0.4,0.6c-0.2,0.2-0.4,0.3-0.6,0.4s-0.5,0.1-0.8,0.1
			s-0.5-0.1-0.8-0.2c-0.2-0.1-0.4-0.3-0.6-0.4c-0.2-0.2-0.3-0.4-0.4-0.6s-0.1-0.5-0.1-0.8s0.1-0.5,0.1-0.8c0.1-0.2,0.2-0.5,0.4-0.6
			c0.2-0.2,0.4-0.3,0.6-0.4s0.5-0.2,0.8-0.2s0.6,0.1,0.8,0.2c0.2,0.1,0.5,0.2,0.6,0.4c0.2,0.2,0.3,0.4,0.4,0.6s0.2,0.5,0.2,0.8
			C109.4,67.7,109.3,68,109.2,68.3z"/>
		<path class="st0" d="M2.2,69.2c0.4,0.1,0.8,0.2,1.2,0.2h5v-5.2H7.6v4.4h-3v-4.4H3.4c-0.5,0-0.9,0.1-1.3,0.2s-0.7,0.3-1,0.5
			s-0.5,0.5-0.6,0.8c-0.2,0.3-0.2,0.7-0.2,1c0,0.5,0.1,0.8,0.3,1.2c0.2,0.3,0.4,0.6,0.7,0.8C1.4,69,1.8,69.1,2.2,69.2z M1,66.8
			c0-0.3,0-0.6,0.2-0.8c0.1-0.2,0.3-0.4,0.5-0.6s0.4-0.3,0.7-0.4c0.3-0.1,0.5-0.1,0.8-0.1H4v3.7H3.1c-0.3,0-0.6,0-0.8-0.1
			c-0.3-0.1-0.5-0.2-0.7-0.4c-0.2-0.2-0.3-0.3-0.4-0.6C1,67.3,1,67.1,1,66.8z"/>
		<rect x="56" y="70.3" class="st0" width="0.8" height="0.8"/>
		<rect x="54.7" y="70.3" class="st0" width="0.8" height="0.8"/>
		<path class="st0" d="M62.6,70.3c0-0.2,0.1-0.5,0.1-0.8v-0.2h9.9v-6.9h-0.8v6.1h-3.3l1.3-3.2c-0.2-0.2-0.4-0.3-0.7-0.5
			c-0.2-0.2-0.5-0.3-0.7-0.4s-0.5-0.2-0.7-0.3C67.4,64,67.2,64,67,64c-0.3,0-0.5,0-0.8,0.1s-0.5,0.2-0.7,0.3
			c-0.2,0.1-0.5,0.3-0.7,0.4c-0.2,0.2-0.4,0.3-0.6,0.5l1.4,3.2h-2.9v-4.4h-0.8v5.4c0,0.2,0,0.4,0,0.6s-0.1,0.3-0.1,0.4
			c-0.1,0.1-0.1,0.2-0.2,0.2s-0.2,0.1-0.4,0.1c-0.1,0-0.1,0-0.2,0s-0.1,0-0.2,0l-0.2,0.7c0.2,0.1,0.4,0.1,0.6,0.1
			c0.3,0,0.5,0,0.7-0.1s0.3-0.2,0.5-0.4C62.5,70.8,62.6,70.6,62.6,70.3z M65.2,65.7c0.3-0.2,0.6-0.4,0.9-0.5s0.6-0.2,1-0.2
			c0.3,0,0.7,0.1,1,0.2s0.6,0.3,0.9,0.5l-1.2,2.9h-1.4L65.2,65.7z"/>
		<rect x="2.5" y="62.5" class="st0" width="0.8" height="0.8"/>
		<polygon class="st0" points="5.7,74.4 4.5,74.4 1.9,77.2 1.9,74.4 1,74.4 1,79.9 1.9,79.9 1.9,78.3 2.8,77.4 4.7,79.9 5.8,79.9 
			3.4,76.8 		"/>
		<rect x="6.7" y="74.4" class="st0" width="1" height="5.5"/>
		<polygon class="st0" points="13,78.2 10.1,74.4 9.2,74.4 9.2,79.9 10.1,79.9 10.1,76 13.1,79.9 14,79.9 14,74.4 13,74.4 		"/>
		<path class="st0" d="M18,77.7h1.4v1C19,79,18.6,79.1,18,79.1c-1.1,0-1.9-0.8-1.9-2l0,0c0-1.1,0.8-1.9,1.8-1.9
			c0.7,0,1.1,0.2,1.5,0.6l0.6-0.7c-0.6-0.5-1.2-0.7-2.1-0.7c-1.7,0-2.8,1.3-2.8,2.8l0,0c0,1.6,1.1,2.8,2.9,2.8c1,0,1.8-0.4,2.3-0.9
			v-2.3H18V77.7z"/>
		<path class="st0" d="M23.7,74.4h-2v5.5h2c1.7,0,2.9-1.2,2.9-2.7l0,0C26.6,75.6,25.4,74.4,23.7,74.4z M25.6,77.2
			c0,1.1-0.8,1.8-1.9,1.8h-1.1v-3.7h1.1C24.8,75.3,25.6,76.1,25.6,77.2L25.6,77.2z"/>
		<path class="st0" d="M30.4,74.3c-1.7,0-2.9,1.3-2.9,2.8l0,0c0,1.5,1.2,2.8,2.9,2.8s2.9-1.3,2.9-2.8l0,0
			C33.3,75.6,32.1,74.3,30.4,74.3z M32.2,77.2c0,1.1-0.8,1.9-1.9,1.9c-1.1,0-1.9-0.9-1.9-2l0,0c0-1.1,0.8-1.9,1.9-1.9
			C31.5,75.2,32.2,76.1,32.2,77.2L32.2,77.2z"/>
		<polygon class="st0" points="37.2,77 35.5,74.4 34.5,74.4 34.5,79.9 35.4,79.9 35.4,76 37.1,78.6 37.2,78.6 38.9,76 38.9,79.9 
			39.9,79.9 39.9,74.4 38.8,74.4 		"/>
		<path class="st0" d="M46.3,74.3c-1.7,0-2.9,1.3-2.9,2.8l0,0c0,1.5,1.2,2.8,2.9,2.8s2.9-1.3,2.9-2.8l0,0
			C49.1,75.6,48,74.3,46.3,74.3z M48.1,77.2c0,1.1-0.8,1.9-1.9,1.9c-1.1,0-1.9-0.9-1.9-2l0,0c0-1.1,0.8-1.9,1.9-1.9
			S48.1,76.1,48.1,77.2L48.1,77.2z"/>
		<polygon class="st0" points="50.3,79.9 51.3,79.9 51.3,77.7 54.1,77.7 54.1,76.8 51.3,76.8 51.3,75.3 54.4,75.3 54.4,74.4 
			50.3,74.4 		"/>
		<path class="st0" d="M60,76.7c-1.1-0.3-1.3-0.4-1.3-0.9l0,0c0-0.4,0.3-0.7,0.9-0.7c0.5,0,1,0.2,1.5,0.6l0.5-0.7
			c-0.6-0.4-1.2-0.7-2-0.7c-1.1,0-1.9,0.7-1.9,1.6l0,0c0,1,0.7,1.4,1.8,1.6c1,0.2,1.2,0.4,1.2,0.8l0,0c0,0.4-0.4,0.7-1,0.7
			c-0.7,0-1.2-0.3-1.7-0.7L57.4,79c0.7,0.6,1.5,0.9,2.3,0.9c1.2,0,2-0.6,2-1.6l0,0C61.7,77.4,61.1,77,60,76.7z"/>
		<path class="st0" d="M64.7,74.4l-2.4,5.5h1l0.6-1.3h2.6l0.6,1.3h1l-2.4-5.5H64.7z M64.2,77.7l0.9-2.2l1,2.2H64.2z"/>
		<path class="st0" d="M72.3,77.6c0,1-0.5,1.5-1.4,1.5s-1.4-0.5-1.4-1.6v-3.1h-1v3.2c0,1.6,0.9,2.4,2.3,2.4s2.4-0.8,2.4-2.5v-3.1h-1
			L72.3,77.6L72.3,77.6z"/>
		<path class="st0" d="M76.7,74.4h-2v5.5h2c1.7,0,2.9-1.2,2.9-2.7l0,0C79.7,75.6,78.5,74.4,76.7,74.4z M78.7,77.2
			c0,1.1-0.8,1.8-1.9,1.8h-1.1v-3.7h1.1C77.9,75.3,78.7,76.1,78.7,77.2L78.7,77.2z"/>
		<rect x="80.9" y="74.4" class="st0" width="1" height="5.5"/>
		<path class="st0" d="M87.6,74.4l-2.4,5.5h1l0.6-1.3h2.6l0.6,1.3h1l-2.4-5.5H87.6z M87.1,77.7l0.9-2.2l1,2.2H87.1z"/>
		<path class="st0" d="M96.3,76.2L96.3,76.2c0-0.5-0.2-0.9-0.5-1.2c-0.4-0.3-0.9-0.5-1.6-0.5h-2.4V80h1v-2H94l0,0l1.4,1.9h1.1
			L95,77.8C95.8,77.6,96.3,77.1,96.3,76.2z M92.8,77.1v-1.8h1.4c0.7,0,1.1,0.3,1.1,0.9l0,0c0,0.6-0.4,0.9-1.1,0.9H92.8z"/>
		<path class="st0" d="M99.7,74.4l-2.4,5.5h1l0.6-1.3h2.6l0.6,1.3h1l-2.4-5.5H99.7z M99.1,77.7l0.9-2.2l1,2.2H99.1z"/>
		<path class="st0" d="M107.4,77.1c0.4-0.2,0.8-0.6,0.8-1.2l0,0c0-0.4-0.1-0.7-0.4-0.9c-0.3-0.3-0.8-0.5-1.4-0.5h-2.5V80h2.5
			c1.2,0,2-0.5,2-1.5l0,0C108.5,77.6,108,77.3,107.4,77.1z M104.8,75.3h1.4c0.6,0,1,0.3,1,0.7l0,0c0,0.5-0.4,0.7-1,0.7h-1.3
			L104.8,75.3L104.8,75.3z M107.5,78.3c0,0.5-0.4,0.8-1.1,0.8h-1.6v-1.5h1.5C107.1,77.5,107.5,77.8,107.5,78.3L107.5,78.3z"/>
		<rect x="109.7" y="74.4" class="st0" width="1" height="5.5"/>
		<path class="st0" d="M114.9,74.4H114l-2.4,5.5h1l0.6-1.3h2.6l0.6,1.3h1L114.9,74.4z M113.4,77.7l0.9-2.2l1,2.2H113.4z"/>
	</g>
</g>
</svg>
